<?xml version="1.0" encoding="UTF-8" standalone="no"?>
<svg
   xmlns:dc="http://purl.org/dc/elements/1.1/"
   xmlns:cc="http://creativecommons.org/ns#"
   xmlns:rdf="http://www.w3.org/1999/02/22-rdf-syntax-ns#"
   xmlns:svg="http://www.w3.org/2000/svg"
   xmlns="http://www.w3.org/2000/svg"
   xmlns:sodipodi="http://sodipodi.sourceforge.net/DTD/sodipodi-0.dtd"
   xmlns:inkscape="http://www.inkscape.org/namespaces/inkscape"
   width="210mm"
   height="297mm"
   viewBox="0 0 210 297"
   version="1.1"
   id="svg8"
   inkscape:version="1.0.1 (3bc2e813f5, 2020-09-07)"
   sodipodi:docname="CaseCutout.svg">
  <defs
     id="defs2">
    <rect
       x="281.38136"
       y="139.94232"
       width="175.11499"
       height="117.49168"
       id="rect2740" />
    <rect
       x="406.4"
       y="-15.875"
       width="184.15"
       height="278.34167"
       id="rect2374" />
    <inkscape:path-effect
       effect="skeletal"
       id="path-effect1394"
       is_visible="true"
       lpeversion="1"
       pattern="M 0,5 C 0,2.24 2.24,0 5,0 7.76,0 10,2.24 10,5 10,7.76 7.76,10 5,10 2.24,10 0,7.76 0,5 Z"
       copytype="single_stretched"
       prop_scale="1"
       scale_y_rel="false"
       spacing="0"
       normal_offset="0"
       tang_offset="0"
       prop_units="false"
       vertical_pattern="false"
       hide_knot="false"
       fuse_tolerance="0" />
    <rect
       x="157.99405"
       y="126.24405"
       width="147.03274"
       height="60.854167"
       id="rect1292" />
    <inkscape:path-effect
       effect="ruler"
       id="path-effect1219"
       is_visible="true"
       lpeversion="1"
       unit="mm"
       mark_distance="18.5"
       mark_length="20"
       minor_mark_length="7"
       major_mark_steps="2"
       shift="0"
       offset="0"
       mark_dir="left"
       border_marks="both" />
    <inkscape:path-effect
       effect="gears"
       id="path-effect1217"
       is_visible="true"
       lpeversion="1"
       teeth="4"
       phi="4.2"
       min_radius="5" />
    <inkscape:path-effect
       effect="skeletal"
       id="path-effect1169"
       is_visible="true"
       lpeversion="1"
       pattern="M 0,0 H 1"
       copytype="single_stretched"
       prop_scale="1"
       scale_y_rel="false"
       spacing="0"
       normal_offset="0"
       tang_offset="0"
       prop_units="false"
       vertical_pattern="false"
       hide_knot="false"
       fuse_tolerance="0" />
    <inkscape:path-effect
       effect="skeletal"
       id="path-effect1157"
       is_visible="true"
       lpeversion="1"
       pattern="M 0,0 H 1"
       copytype="single_stretched"
       prop_scale="1"
       scale_y_rel="false"
       spacing="0"
       normal_offset="0"
       tang_offset="0"
       prop_units="false"
       vertical_pattern="false"
       hide_knot="false"
       fuse_tolerance="0" />
    <inkscape:path-effect
       effect="skeletal"
       id="path-effect218"
       is_visible="true"
       lpeversion="1"
       pattern="m 77.068726,139.84998 h 9.904219 v 3.40421 h -9.904219 z"
       copytype="repeated"
       prop_scale="0.9"
       scale_y_rel="false"
       spacing="0.6"
       normal_offset="0"
       tang_offset="0"
       prop_units="true"
       vertical_pattern="false"
       hide_knot="false"
       fuse_tolerance="5.3" />
    <inkscape:path-effect
       effect="copy_rotate"
       starting_point="0,0"
       origin="54.39,156.07"
       id="path-effect214"
       is_visible="true"
       lpeversion="1"
       method="normal"
       num_copies="10"
       starting_angle="90"
       rotation_angle="0"
       gap="0.52"
       copies_to_360="true"
       mirror_copies="false"
       split_items="false" />
    <inkscape:path-effect
       effect="copy_rotate"
       starting_point="0,0"
       origin="27.595837,201.08333"
       id="path-effect212"
       is_visible="true"
       lpeversion="1"
       method="normal"
       num_copies="6"
       starting_angle="0"
       rotation_angle="60"
       gap="-0.01"
       copies_to_360="true"
       mirror_copies="false"
       split_items="false" />
    <rect
       x="157.99405"
       y="126.24405"
       width="147.03275"
       height="60.854168"
       id="rect1292-7" />
    <rect
       x="157.99405"
       y="126.24405"
       width="147.03275"
       height="60.854168"
       id="rect1305" />
  </defs>
  <sodipodi:namedview
     id="base"
     pagecolor="#ffffff"
     bordercolor="#666666"
     borderopacity="1.0"
     inkscape:pageopacity="0.0"
     inkscape:pageshadow="2"
     inkscape:zoom="0.35355339"
     inkscape:cx="903.31391"
     inkscape:cy="675.80201"
     inkscape:document-units="mm"
     inkscape:current-layer="layer3"
     inkscape:document-rotation="0"
     showgrid="false"
     inkscape:window-width="1440"
     inkscape:window-height="748"
     inkscape:window-x="-6"
     inkscape:window-y="-6"
     inkscape:window-maximized="1"
     inkscape:snap-bbox="true"
     inkscape:snap-object-midpoints="true"
     inkscape:snap-others="true"
     inkscape:snap-center="true"
     inkscape:snap-bbox-midpoints="true"
     inkscape:object-nodes="false"
     inkscape:bbox-paths="true"
     inkscape:snap-bbox-edge-midpoints="true"
     inkscape:snap-global="true"
     showguides="true"
     inkscape:guide-bbox="true">
    <inkscape:grid
       type="xygrid"
       id="grid1359" />
  </sodipodi:namedview>
  <metadata
     id="metadata5">
    <rdf:RDF>
      <cc:Work
         rdf:about="">
        <dc:format>image/svg+xml</dc:format>
        <dc:type
           rdf:resource="http://purl.org/dc/dcmitype/StillImage" />
        <dc:title />
      </cc:Work>
    </rdf:RDF>
  </metadata>
  <g
     inkscape:label="Layer 1"
     inkscape:groupmode="layer"
     id="layer1"
     style="display:none" />
  <g
     inkscape:groupmode="layer"
     id="g2153"
     inkscape:label="Inner Bend copy 1"
     style="display:inline">
    <rect
       style="fill:none;stroke:#000000;stroke-width:0.00429558;stroke-miterlimit:4;stroke-dasharray:none"
       id="rect2133"
       width="159.58861"
       height="44.595703"
       x="9.6485863"
       y="70.767143"
       inkscape:transform-center-x="0.62303816"
       inkscape:transform-center-y="1.353963" />
    <rect
       style="fill:none;stroke:#000000;stroke-width:0.00348848;stroke-miterlimit:4;stroke-dasharray:none"
       id="rect2135"
       width="3.4965115"
       height="49.996513"
       x="9.6481829"
       y="68.066742" />
    <rect
       style="fill:none;stroke:#000000;stroke-width:0.0049341;stroke-miterlimit:4;stroke-dasharray:none"
       id="rect2137"
       width="6.9950662"
       height="49.995068"
       x="26.097906"
       y="68.067467" />
    <rect
       style="fill:none;stroke:#000000;stroke-width:0.0049341;stroke-miterlimit:4;stroke-dasharray:none"
       id="rect2499"
       width="6.9950662"
       height="49.995068"
       x="46.046906"
       y="68.067467" />
    <rect
       style="fill:none;stroke:#000000;stroke-width:0.0049341;stroke-miterlimit:4;stroke-dasharray:none"
       id="rect2501"
       width="6.9950662"
       height="49.995068"
       x="65.995903"
       y="68.067467" />
    <rect
       style="fill:none;stroke:#000000;stroke-width:0.0049341;stroke-miterlimit:4;stroke-dasharray:none"
       id="rect2503"
       width="6.9950662"
       height="49.995068"
       x="85.944901"
       y="68.067467" />
    <rect
       style="fill:none;stroke:#000000;stroke-width:0.0049341;stroke-miterlimit:4;stroke-dasharray:none"
       id="rect2505"
       width="6.9950662"
       height="49.995068"
       x="105.8939"
       y="68.067467" />
    <rect
       style="fill:none;stroke:#000000;stroke-width:0.0049341;stroke-miterlimit:4;stroke-dasharray:none"
       id="rect2507"
       width="6.9950662"
       height="49.995068"
       x="125.8429"
       y="68.067467" />
    <rect
       style="fill:none;stroke:#000000;stroke-width:0.0049341;stroke-miterlimit:4;stroke-dasharray:none"
       id="rect2509"
       width="6.9950662"
       height="49.995068"
       x="145.7919"
       y="68.067467" />
    <rect
       style="fill:none;stroke:#000000;stroke-width:0.00348848;stroke-miterlimit:4;stroke-dasharray:none"
       id="rect2511"
       width="3.4965115"
       height="49.996513"
       x="165.74019"
       y="68.066742" />
  </g>
  <g
     inkscape:groupmode="layer"
     id="g2277"
     inkscape:label="Outer Bend copy"
     style="display:inline;mix-blend-mode:normal">
    <rect
       style="fill:none;stroke:#000000;stroke-width:0.00477137;stroke-miterlimit:4;stroke-dasharray:none"
       id="rect2241"
       width="336.93103"
       height="44.59523"
       x="5.0023856"
       y="5.0023856" />
    <rect
       style="fill:none;stroke:#000000;stroke-width:0.00362908;stroke-miterlimit:4;stroke-dasharray:none"
       id="rect2243"
       width="3.496371"
       height="49.996368"
       x="5.0018144"
       y="2.3018165" />
    <rect
       style="fill:none;stroke:#000000;stroke-width:0.005133;stroke-miterlimit:4;stroke-dasharray:none"
       id="rect2456"
       width="6.9948668"
       height="49.994865"
       x="22.560566"
       y="2.302568" />
    <rect
       style="fill:none;stroke:#000000;stroke-width:0.005133;stroke-miterlimit:4;stroke-dasharray:none"
       id="rect2458"
       width="6.9948668"
       height="49.994865"
       x="43.618565"
       y="2.302568" />
    <rect
       style="fill:none;stroke:#000000;stroke-width:0.005133;stroke-miterlimit:4;stroke-dasharray:none"
       id="rect2460"
       width="6.9948668"
       height="49.994865"
       x="64.676567"
       y="2.302568" />
    <rect
       style="fill:none;stroke:#000000;stroke-width:0.005133;stroke-miterlimit:4;stroke-dasharray:none"
       id="rect2462"
       width="6.9948668"
       height="49.994865"
       x="85.734566"
       y="2.302568" />
    <rect
       style="fill:none;stroke:#000000;stroke-width:0.005133;stroke-miterlimit:4;stroke-dasharray:none"
       id="rect2464"
       width="6.9948668"
       height="49.994865"
       x="106.79256"
       y="2.302568" />
    <rect
       style="fill:none;stroke:#000000;stroke-width:0.005133;stroke-miterlimit:4;stroke-dasharray:none"
       id="rect2466"
       width="6.9948668"
       height="49.994865"
       x="127.85056"
       y="2.302568" />
    <rect
       style="fill:none;stroke:#000000;stroke-width:0.005133;stroke-miterlimit:4;stroke-dasharray:none"
       id="rect2468"
       width="6.9948668"
       height="49.994865"
       x="148.90857"
       y="2.302568" />
    <rect
       style="fill:none;stroke:#000000;stroke-width:0.005133;stroke-miterlimit:4;stroke-dasharray:none"
       id="rect2470"
       width="6.9948668"
       height="49.994865"
       x="169.96657"
       y="2.302568" />
    <rect
       style="fill:none;stroke:#000000;stroke-width:0.005133;stroke-miterlimit:4;stroke-dasharray:none"
       id="rect2472"
       width="6.9948668"
       height="49.994865"
       x="191.02457"
       y="2.302568" />
    <rect
       style="fill:none;stroke:#000000;stroke-width:0.005133;stroke-miterlimit:4;stroke-dasharray:none"
       id="rect2474"
       width="6.9948668"
       height="49.994865"
       x="212.08257"
       y="2.302568" />
    <rect
       style="fill:none;stroke:#000000;stroke-width:0.005133;stroke-miterlimit:4;stroke-dasharray:none"
       id="rect2476"
       width="6.9948668"
       height="49.994865"
       x="233.14056"
       y="2.302568" />
    <rect
       style="fill:none;stroke:#000000;stroke-width:0.005133;stroke-miterlimit:4;stroke-dasharray:none"
       id="rect2478"
       width="6.9948668"
       height="49.994865"
       x="254.19856"
       y="2.302568" />
    <rect
       style="fill:none;stroke:#000000;stroke-width:0.005133;stroke-miterlimit:4;stroke-dasharray:none"
       id="rect2480"
       width="6.9948668"
       height="49.994865"
       x="275.25656"
       y="2.302568" />
    <rect
       style="fill:none;stroke:#000000;stroke-width:0.005133;stroke-miterlimit:4;stroke-dasharray:none"
       id="rect2482"
       width="6.9948668"
       height="49.994865"
       x="296.31458"
       y="2.302568" />
    <rect
       style="fill:none;stroke:#000000;stroke-width:0.005133;stroke-miterlimit:4;stroke-dasharray:none"
       id="rect2484"
       width="6.9948668"
       height="49.994865"
       x="317.37259"
       y="2.302568" />
    <rect
       style="fill:none;stroke:#000000;stroke-width:0.00362908;stroke-miterlimit:4;stroke-dasharray:none"
       id="rect2486"
       width="3.496371"
       height="49.996368"
       x="338.42984"
       y="2.301816" />
  </g>
  <g
     inkscape:groupmode="layer"
     id="g1864"
     inkscape:label="Bottom copy"
     style="display:inline">
    <path
       id="circle1814"
       style="display:inline;fill:none;stroke:#000000;stroke-width:0.00492628;stroke-miterlimit:4;stroke-dasharray:none"
       d="m 58.048919,133.31859 a 53.62254,53.622535 0 0 0 -13.747998,2.73471 l 1.035595,2.50011 a 50.92266,50.92266 0 0 0 -6.462655,2.67632 l -1.035595,-2.49959 a 53.62254,53.622535 0 0 0 -11.655102,7.78712 l 1.913578,1.91358 a 50.92266,50.92266 0 0 0 -4.945951,4.94647 l -1.913578,-1.91358 a 53.62254,53.622535 0 0 0 -7.78764,11.65511 l 2.49959,1.03559 a 50.92266,50.92266 0 0 0 -2.676324,6.46265 l -2.500106,-1.03559 a 53.62254,53.622535 0 0 0 -2.7347146,13.748 h 2.7057776 a 50.92266,50.92266 0 0 0 -0.120407,3.49746 50.92266,50.92266 0 0 0 0.120407,3.49746 H 8.0380184 a 53.62254,53.622535 0 0 0 2.7347146,13.748 l 2.500106,-1.0356 a 50.92266,50.92266 0 0 0 2.676324,6.46265 l -2.49959,1.03508 a 53.62254,53.622535 0 0 0 7.787121,11.65562 l 1.913578,-1.91358 a 50.92266,50.92266 0 0 0 4.94647,4.94596 l -1.913578,1.91358 a 53.62254,53.622535 0 0 0 11.655102,7.78763 l 1.035595,-2.5001 a 50.92266,50.92266 0 0 0 6.462139,2.67632 l -1.035598,2.5001 a 53.62254,53.622535 0 0 0 13.748517,2.73524 v -2.7063 a 50.92266,50.92266 0 0 0 3.497458,0.12041 50.92266,50.92266 0 0 0 3.497464,-0.12041 v 2.70578 a 53.62254,53.622535 0 0 0 13.747996,-2.73472 l -1.035595,-2.49958 a 50.92266,50.92266 0 0 0 6.462654,-2.67684 l 1.035595,2.49959 a 53.62254,53.622535 0 0 0 11.655105,-7.78712 l -1.913581,-1.91358 a 50.92266,50.92266 0 0 0 4.945952,-4.94647 l 1.913573,1.91358 a 53.62254,53.622535 0 0 0 7.78713,-11.65459 l -2.49959,-1.0356 a 50.92266,50.92266 0 0 0 2.67684,-6.46265 l 2.49959,1.0356 a 53.62254,53.622535 0 0 0 2.73523,-13.748 h -2.70629 a 50.92266,50.92266 0 0 0 0.1204,-3.49746 50.92266,50.92266 0 0 0 -0.1204,-3.49746 h 2.70577 a 53.62254,53.622535 0 0 0 -2.73471,-13.74852 l -2.50011,1.0356 a 50.92266,50.92266 0 0 0 -2.67632,-6.46214 l 2.49959,-1.03559 a 53.62254,53.622535 0 0 0 -7.78713,-11.65511 l -1.913573,1.91358 a 50.92266,50.92266 0 0 0 -4.945952,-4.94647 l 1.913062,-1.91306 a 53.62254,53.622535 0 0 0 -11.655102,-7.78764 l -1.035079,2.49959 a 50.92266,50.92266 0 0 0 -6.46317,-2.67632 l 1.035595,-2.50011 a 53.62254,53.622535 0 0 0 -13.74748,-2.73471 v 2.70577 a 50.92266,50.92266 0 0 0 -3.497464,-0.1204 50.92266,50.92266 0 0 0 -3.497458,0.1204 z m 3.383254,25.41137 a 28.097011,28.097011 0 0 0 -3.383254,0.21859 v 2.72335 a 25.397299,25.397299 0 0 0 -11.81685,4.89427 l -1.925465,-1.92546 a 28.097011,28.097011 0 0 0 -4.946983,4.94595 l 1.925978,1.92598 a 25.397299,25.397299 0 0 0 -4.894273,11.81685 h -2.723867 a 28.097011,28.097011 0 0 0 -0.218072,3.49746 28.097011,28.097011 0 0 0 0.218591,3.49746 h 2.723348 a 25.397299,25.397299 0 0 0 4.894273,11.81685 l -1.925463,1.92546 a 28.097011,28.097011 0 0 0 4.945952,4.94647 l 1.925981,-1.92598 a 25.397299,25.397299 0 0 0 11.81685,4.89479 v 2.72335 a 28.097011,28.097011 0 0 0 3.497458,0.21859 28.097011,28.097011 0 0 0 3.497464,-0.21859 V 211.982 a 25.397299,25.397299 0 0 0 11.816847,-4.89479 l 1.925466,1.92546 a 28.097011,28.097011 0 0 0 4.945951,-4.94595 l -1.925466,-1.92546 a 25.397299,25.397299 0 0 0 4.894792,-11.81685 h 2.722832 a 28.097011,28.097011 0 0 0 0.219107,-3.49746 28.097011,28.097011 0 0 0 -0.218591,-3.49746 h -2.723348 a 25.397299,25.397299 0 0 0 -4.894792,-11.81685 l 1.925466,-1.92547 a 28.097011,28.097011 0 0 0 -4.945951,-4.94646 l -1.925466,1.92546 A 25.397299,25.397299 0 0 0 65.043841,161.6719 v -2.72335 a 28.097011,28.097011 0 0 0 -3.497464,-0.21859 28.097011,28.097011 0 0 0 -0.114204,0 z" />
  </g>
  <g
     inkscape:groupmode="layer"
     id="layer4"
     inkscape:label="Top"
     style="display:inline">
    <text
       xml:space="preserve"
       id="text2372"
       style="font-style:normal;font-weight:normal;font-size:10.5833px;line-height:1.25;font-family:sans-serif;white-space:pre;shape-inside:url(#rect2374);fill:#000000;fill-opacity:1;stroke:none;"><tspan
         x="406.40039"
         y="-6.5112603"><tspan>TODO
</tspan></tspan><tspan
         x="406.40039"
         y="6.7178638"><tspan>
</tspan></tspan><tspan
         x="406.40039"
         y="19.946988"><tspan>----Grow and shrink edges
</tspan></tspan><tspan
         x="406.40039"
         y="33.176112"><tspan>----Pack contents
</tspan></tspan><tspan
         x="406.40039"
         y="46.405236"><tspan>----Disb</tspan></tspan></text>
    <path
       id="circle1814-0"
       style="display:inline;fill:none;stroke:#000000;stroke-width:0.00492628;stroke-miterlimit:4;stroke-dasharray:none"
       d="m 188.8297,133.58031 a 53.622541,53.622535 0 0 0 -13.74799,2.73472 l 1.03559,2.5001 a 50.922661,50.922661 0 0 0 -6.46265,2.67632 l -1.0356,-2.49959 a 53.622541,53.622535 0 0 0 -11.6551,7.78713 l 1.91358,1.91358 a 50.922661,50.922661 0 0 0 -4.94595,4.94646 l -1.91358,-1.91357 a 53.622541,53.622535 0 0 0 -7.78764,11.6551 l 2.49959,1.03559 a 50.922661,50.922661 0 0 0 -2.67633,6.46266 l -2.5001,-1.0356 a 53.622541,53.622535 0 0 0 -2.73472,13.748 h 2.70578 a 50.922661,50.922661 0 0 0 -0.12041,3.49746 50.922661,50.922661 0 0 0 0.12041,3.49746 h -2.70578 a 53.622541,53.622535 0 0 0 2.73472,13.748 l 2.5001,-1.0356 a 50.922661,50.922661 0 0 0 2.67633,6.46266 l -2.49959,1.03508 a 53.622541,53.622535 0 0 0 7.78712,11.65562 l 1.91358,-1.91358 a 50.922661,50.922661 0 0 0 4.94647,4.94595 l -1.91358,1.91358 a 53.622541,53.622535 0 0 0 11.6551,7.78764 l 1.0356,-2.50011 a 50.922661,50.922661 0 0 0 6.46214,2.67633 l -1.0356,2.5001 a 53.622541,53.622535 0 0 0 13.74851,2.73523 v -2.70629 a 50.922661,50.922661 0 0 0 3.49746,0.12041 50.922661,50.922661 0 0 0 3.49747,-0.12041 v 2.70578 a 53.622541,53.622535 0 0 0 13.74799,-2.73472 l -1.03559,-2.49959 a 50.922661,50.922661 0 0 0 6.46265,-2.67684 l 1.0356,2.49959 a 53.622541,53.622535 0 0 0 11.6551,-7.78712 l -1.91358,-1.91358 a 50.922661,50.922661 0 0 0 4.94595,-4.94647 l 1.91358,1.91358 a 53.622541,53.622535 0 0 0 7.78712,-11.65458 l -2.49959,-1.0356 a 50.922661,50.922661 0 0 0 2.67684,-6.46266 l 2.49959,1.0356 a 53.622541,53.622535 0 0 0 2.73523,-13.748 h -2.70629 a 50.922661,50.922661 0 0 0 0.12041,-3.49746 50.922661,50.922661 0 0 0 -0.12041,-3.49746 h 2.70578 a 53.622541,53.622535 0 0 0 -2.73472,-13.74851 l -2.50011,1.03559 a 50.922661,50.922661 0 0 0 -2.67632,-6.46214 l 2.49959,-1.03559 a 53.622541,53.622535 0 0 0 -7.78712,-11.6551 l -1.91358,1.91357 a 50.922661,50.922661 0 0 0 -4.94595,-4.94646 l 1.91306,-1.91307 a 53.622541,53.622535 0 0 0 -11.6551,-7.78764 l -1.03508,2.49959 a 50.922661,50.922661 0 0 0 -6.46317,-2.67632 l 1.0356,-2.5001 a 53.622541,53.622535 0 0 0 -13.74748,-2.73472 v 2.70578 a 50.922661,50.922661 0 0 0 -3.49747,-0.12041 50.922661,50.922661 0 0 0 -3.49746,0.12041 z m 3.38326,25.41137 a 28.097012,28.097012 0 0 0 -3.38326,0.21859 v 2.72335 a 25.397299,25.397299 0 0 0 -11.81685,4.89427 l -1.92546,-1.92546 a 28.097012,28.097012 0 0 0 -4.94698,4.94595 l 1.92597,1.92598 a 25.397299,25.397299 0 0 0 -4.89427,11.81685 h -2.72387 a 28.097012,28.097012 0 0 0 -0.21807,3.49746 28.097012,28.097012 0 0 0 0.21859,3.49746 h 2.72335 a 25.397299,25.397299 0 0 0 4.89427,11.81685 l -1.92546,1.92547 a 28.097012,28.097012 0 0 0 4.94595,4.94646 l 1.92598,-1.92597 a 25.397299,25.397299 0 0 0 11.81685,4.89479 v 2.72334 a 28.097012,28.097012 0 0 0 3.49746,0.2186 28.097012,28.097012 0 0 0 3.49747,-0.2186 v -2.72334 a 25.397299,25.397299 0 0 0 11.81684,-4.89479 l 1.92547,1.92546 a 28.097012,28.097012 0 0 0 4.94595,-4.94595 l -1.92546,-1.92547 a 25.397299,25.397299 0 0 0 4.89479,-11.81685 h 2.72283 a 28.097012,28.097012 0 0 0 0.21911,-3.49746 28.097012,28.097012 0 0 0 -0.21859,-3.49746 h -2.72335 a 25.397299,25.397299 0 0 0 -4.89479,-11.81685 l 1.92546,-1.92546 a 28.097012,28.097012 0 0 0 -4.94595,-4.94647 l -1.92547,1.92546 a 25.397299,25.397299 0 0 0 -11.81684,-4.89427 v -2.72335 a 28.097012,28.097012 0 0 0 -3.49747,-0.21859 28.097012,28.097012 0 0 0 -0.1142,0 z" />
    <text
       xml:space="preserve"
       id="text2738"
       style="font-style:normal;font-weight:normal;font-size:10.5833px;line-height:1.25;font-family:sans-serif;white-space:pre;shape-inside:url(#rect2740);fill:#000000;fill-opacity:1;stroke:none;"
       transform="translate(-16.404167,62.970833)"><tspan
         x="281.38086"
         y="149.30515"><tspan>Add LCD cutout
</tspan></tspan><tspan
         x="281.38086"
         y="162.53427"><tspan>Add power cutout
</tspan></tspan><tspan
         x="281.38086"
         y="175.7634"><tspan>Add joystick cutout
</tspan></tspan></text>
  </g>
  <g
     inkscape:groupmode="layer"
     id="layer3"
     inkscape:label="Inserts">
    <path
       id="circle2770"
       style="fill:none;fill-opacity:0.211765;stroke:#000000;stroke-width:0.00295332;stroke-miterlimit:4;stroke-dasharray:none;stroke-opacity:1"
       d="m 386.73933,100.24998 a 4.9985232,4.9985232 0 0 1 -4.99853,4.99852 4.9985232,4.9985232 0 0 1 -4.99852,-4.99852 4.9985232,4.9985232 0 0 1 4.99852,-4.998515 4.9985232,4.9985232 0 0 1 4.99853,4.998515 z m -11.64185,0 a 4.9985232,4.9985232 0 0 1 -4.99852,4.99852 4.9985232,4.9985232 0 0 1 -4.99853,-4.99852 4.9985232,4.9985232 0 0 1 4.99853,-4.998515 4.9985232,4.9985232 0 0 1 4.99852,4.998515 z m -12.17102,0 a 4.9985232,4.9985232 0 0 1 -4.99852,4.99852 4.9985232,4.9985232 0 0 1 -4.99853,-4.99852 4.9985232,4.9985232 0 0 1 4.99853,-4.998515 4.9985232,4.9985232 0 0 1 4.99852,4.998515 z" />
    <path
       id="circle2770-7"
       style="fill:none;fill-opacity:0.211765;stroke:#000000;stroke-width:0.00295333;stroke-miterlimit:4;stroke-dasharray:none;stroke-opacity:1"
       d="m 386.47475,118.18747 a 4.9985231,4.9985231 0 0 1 -4.99853,4.99852 4.9985231,4.9985231 0 0 1 -4.99852,-4.99852 4.9985231,4.9985231 0 0 1 4.99852,-4.99852 4.9985231,4.9985231 0 0 1 4.99853,4.99852 z m -11.64185,0 a 4.9985231,4.9985231 0 0 1 -4.99852,4.99852 4.9985231,4.9985231 0 0 1 -4.99853,-4.99852 4.9985231,4.9985231 0 0 1 4.99853,-4.99852 4.9985231,4.9985231 0 0 1 4.99852,4.99852 z m -12.17102,0 a 4.9985231,4.9985231 0 0 1 -4.99852,4.99852 4.9985231,4.9985231 0 0 1 -4.99853,-4.99852 4.9985231,4.9985231 0 0 1 4.99853,-4.99852 4.9985231,4.9985231 0 0 1 4.99852,4.99852 z" />
    <path
       id="circle2770-5"
       style="fill:none;fill-opacity:0.211765;stroke:#000000;stroke-width:0.00295333;stroke-miterlimit:4;stroke-dasharray:none;stroke-opacity:1"
       d="m 386.47475,138.24162 a 4.9985231,4.9985231 0 0 1 -4.99853,4.99852 4.9985231,4.9985231 0 0 1 -4.99852,-4.99852 4.9985231,4.9985231 0 0 1 4.99852,-4.99852 4.9985231,4.9985231 0 0 1 4.99853,4.99852 z m -11.64185,0 a 4.9985231,4.9985231 0 0 1 -4.99852,4.99852 4.9985231,4.9985231 0 0 1 -4.99853,-4.99852 4.9985231,4.9985231 0 0 1 4.99853,-4.99852 4.9985231,4.9985231 0 0 1 4.99852,4.99852 z m -12.17102,0 a 4.9985231,4.9985231 0 0 1 -4.99852,4.99852 4.9985231,4.9985231 0 0 1 -4.99853,-4.99852 4.9985231,4.9985231 0 0 1 4.99853,-4.99852 4.9985231,4.9985231 0 0 1 4.99852,4.99852 z" />
    <path
       id="circle2770-6"
       style="fill:none;fill-opacity:0.211765;stroke:#000000;stroke-width:0.00295333;stroke-miterlimit:4;stroke-dasharray:none;stroke-opacity:1"
       d="m 387.00391,81.254159 a 4.9985231,4.9985231 0 0 1 -4.99853,4.99852 4.9985231,4.9985231 0 0 1 -4.99852,-4.99852 4.9985231,4.9985231 0 0 1 4.99852,-4.998522 4.9985231,4.9985231 0 0 1 4.99853,4.998522 z m -11.64185,0 a 4.9985231,4.9985231 0 0 1 -4.99852,4.99852 4.9985231,4.9985231 0 0 1 -4.99853,-4.99852 4.9985231,4.9985231 0 0 1 4.99853,-4.998522 4.9985231,4.9985231 0 0 1 4.99852,4.998522 z m -12.17102,0 a 4.9985231,4.9985231 0 0 1 -4.99852,4.99852 4.9985231,4.9985231 0 0 1 -4.99853,-4.99852 4.9985231,4.9985231 0 0 1 4.99853,-4.998522 4.9985231,4.9985231 0 0 1 4.99852,4.998522 z" />
  </g>
  <g
     inkscape:groupmode="layer"
     id="layer2"
     inkscape:label="Center Ring">
    <path
       id="path2745-9"
       style="fill:none;fill-opacity:0.211765;stroke:#000000;stroke-width:0.00394024;stroke-miterlimit:4;stroke-dasharray:none;stroke-opacity:1"
       d="m 332.38657,108.68956 a 50.923031,50.923031 0 0 1 -50.92303,50.92303 50.923031,50.923031 0 0 1 -50.92303,-50.92303 50.923031,50.923031 0 0 1 50.92303,-50.923027 50.923031,50.923031 0 0 1 50.92303,50.923027 z m -22.82412,0 a 28.098913,28.098913 0 0 1 -28.09891,28.09891 28.098913,28.098913 0 0 1 -28.09891,-28.09891 28.098913,28.098913 0 0 1 28.09891,-28.098907 28.098913,28.098913 0 0 1 28.09891,28.098907 z" />
  </g>
  <g
     inkscape:groupmode="layer"
     id="layer5"
     inkscape:label="Bottom"
     style="display:none">
    <g
       id="g2346">
      <path
         id="path1318"
         style="fill:none;stroke:#000000;stroke-width:0.0197798;stroke-miterlimit:4;stroke-dasharray:none"
         d="m 314.20703,650.83398 a 106.19489,106.19489 0 0 0 -12.78515,0.82618 v 13.34765 a 92.966486,92.966486 0 0 0 -42.50196,17.60547 l -9.4375,-9.4375 a 106.19489,106.19489 0 0 0 -9.93359,8.76172 106.19489,106.19489 0 0 0 -0.30664,0.30664 106.19489,106.19489 0 0 0 -8.45508,9.625 l 9.4375,9.4375 a 92.966486,92.966486 0 0 0 -17.60547,42.50195 h -13.3457 a 106.19489,106.19489 0 0 0 -0.82813,13.21875 106.19489,106.19489 0 0 0 0,0.4336 106.19489,106.19489 0 0 0 0.82617,12.78515 h 13.34766 A 92.966486,92.966486 0 0 0 240.22266,812.75 l -9.43555,9.4375 a 106.19489,106.19489 0 0 0 8.76172,9.93164 106.19489,106.19489 0 0 0 0.30664,0.30664 106.19489,106.19489 0 0 0 9.625,8.45703 l 9.4375,-9.4375 a 92.966486,92.966486 0 0 0 42.50195,17.60547 v 13.34375 a 106.19489,106.19489 0 0 0 13.21875,0.82813 106.19489,106.19489 0 0 0 0.4336,0 106.19489,106.19489 0 0 0 12.78515,-0.82618 v -13.3457 a 92.966486,92.966486 0 0 0 42.50391,-17.60742 l 9.4375,9.4375 a 106.19489,106.19489 0 0 0 9.93164,-8.75977 106.19489,106.19489 0 0 0 0.30664,-0.30664 106.19489,106.19489 0 0 0 8.45703,-9.625 L 389.05469,812.75 a 92.966486,92.966486 0 0 0 17.60547,-42.50195 h 13.3457 a 106.19489,106.19489 0 0 0 0.82812,-13.21875 106.19489,106.19489 0 0 0 0,-0.4336 106.19489,106.19489 0 0 0 -0.82617,-12.78515 h -13.34765 a 92.966486,92.966486 0 0 0 -17.60547,-42.50196 l 9.4375,-9.4375 a 106.19489,106.19489 0 0 0 -8.75977,-9.93359 106.19489,106.19489 0 0 0 -0.30664,-0.30664 106.19489,106.19489 0 0 0 -9.625,-8.45508 l -9.43945,9.43945 a 92.966486,92.966486 0 0 0 -42.50195,-17.60742 v -13.3457 a 106.19489,106.19489 0 0 0 -13.21876,-0.82813 106.19489,106.19489 0 0 0 -0.43359,0 z"
         transform="scale(0.26458333)" />
      <path
         id="path1318-9"
         style="display:inline;fill:none;stroke:#000000;stroke-width:0.0188968;stroke-miterlimit:4;stroke-dasharray:none"
         d="m 327.85938,551.76172 v 13.24023 a 194.07097,192.46316 0 0 0 -13.21876,-0.44726 194.07097,192.46316 0 0 0 -13.21874,0.44726 v -13.23828 a 205.69134,205.69134 0 0 0 -53.1211,10.56641 l 5.06641,12.23047 a 192.46316,194.07097 67.5 0 0 -12.38477,4.64453 192.46316,194.07097 67.5 0 0 -12.04101,5.47265 L 223.875,572.44727 a 205.69134,205.69134 0 0 0 -45.03125,30.08984 l 9.35937,9.36133 a 192.46316,194.07097 45 0 0 -9.66406,9.02929 192.46316,194.07097 45 0 0 -9.02929,9.66407 l -9.36133,-9.35938 a 205.69134,205.69134 0 0 0 -30.08789,45.03125 l 12.22851,5.06641 a 192.46316,194.07097 22.5 0 0 -5.47265,12.04101 192.46316,194.07097 22.5 0 0 -4.64453,12.38477 l -12.23047,-5.06641 a 205.69134,205.69134 0 0 0 -10.56836,53.1211 h 13.24023 a 192.46316,194.07097 0 0 0 -0.44726,13.21875 192.46316,194.07097 0 0 0 0.44726,13.21875 H 109.375 a 205.69134,205.69134 0 0 0 10.56641,53.11914 l 12.23047,-5.06446 a 194.07097,192.46316 67.5 0 0 4.64453,12.38282 194.07097,192.46316 67.5 0 0 5.47265,12.04101 l -12.23047,5.06641 a 205.69134,205.69134 0 0 0 30.08985,45.0332 l 9.36133,-9.36133 a 194.07097,192.46316 45 0 0 9.02929,9.66407 194.07097,192.46316 45 0 0 9.66406,9.03125 l -9.36132,9.36132 a 205.69134,205.69134 0 0 0 45.0332,30.08985 l 5.06641,-12.23047 a 194.07097,192.46316 22.5 0 0 12.04101,5.4707 194.07097,192.46316 22.5 0 0 12.38477,4.64649 l -5.06641,12.23047 a 205.69134,205.69134 0 0 0 53.1211,10.56836 v -13.24024 a 194.07097,192.46316 0 0 0 13.21874,0.44727 194.07097,192.46316 0 0 0 13.21876,-0.44727 v 13.23828 a 205.69134,205.69134 0 0 0 53.11914,-10.5664 l -5.06446,-12.23047 a 192.46316,194.07097 67.5 0 0 12.38282,-4.64649 192.46316,194.07097 67.5 0 0 12.04101,-5.4707 l 5.06641,12.23047 a 205.69134,205.69134 0 0 0 45.0332,-30.08985 l -9.36133,-9.36132 a 192.46316,194.07097 45 0 0 9.66406,-9.03125 192.46316,194.07097 45 0 0 9.03125,-9.66407 l 9.36133,9.36133 a 205.69134,205.69134 0 0 0 30.08985,-45.0332 l -12.23047,-5.06641 a 192.46316,194.07097 22.5 0 0 5.4707,-12.04101 192.46316,194.07097 22.5 0 0 4.64649,-12.38282 l 12.23046,5.06641 a 205.69134,205.69134 0 0 0 10.56836,-53.12109 h -13.24023 a 192.46316,194.07097 0 0 0 0.44726,-13.21875 192.46316,194.07097 0 0 0 -0.44726,-13.21875 h 13.23828 a 205.69134,205.69134 0 0 0 -10.56641,-53.1211 l -12.23046,5.06641 a 194.07097,192.46316 67.5 0 0 -4.64649,-12.38477 194.07097,192.46316 67.5 0 0 -5.4707,-12.04101 l 12.23047,-5.06641 a 205.69134,205.69134 0 0 0 -30.08985,-45.0332 l -9.36133,9.36133 a 194.07097,192.46316 45 0 0 -9.03125,-9.66407 194.07097,192.46316 45 0 0 -9.66406,-9.02929 l 9.36328,-9.36328 A 205.69134,205.69134 0 0 0 405.4043,572.44531 l -5.06641,12.23242 a 194.07097,192.46316 22.5 0 0 -12.04101,-5.47265 194.07097,192.46316 22.5 0 0 -12.38282,-4.64453 l 5.06641,-12.23047 a 205.69134,205.69134 0 0 0 -53.12109,-10.56836 z"
         transform="scale(0.26458333)" />
    </g>
  </g>
</svg>
