G04 #@! TF.GenerationSoftware,KiCad,Pcbnew,(5.1.4)-1*
G04 #@! TF.CreationDate,2020-09-27T16:22:14-07:00*
G04 #@! TF.ProjectId,StarGazer,53746172-4761-47a6-9572-2e6b69636164,rev?*
G04 #@! TF.SameCoordinates,Original*
G04 #@! TF.FileFunction,Soldermask,Bot*
G04 #@! TF.FilePolarity,Negative*
%FSLAX46Y46*%
G04 Gerber Fmt 4.6, Leading zero omitted, Abs format (unit mm)*
G04 Created by KiCad (PCBNEW (5.1.4)-1) date 2020-09-27 16:22:14*
%MOMM*%
%LPD*%
G04 APERTURE LIST*
%ADD10C,0.100000*%
G04 APERTURE END LIST*
D10*
G36*
X162652544Y-135515898D02*
G01*
X162788647Y-135553834D01*
X162813835Y-135560855D01*
X162813836Y-135560855D01*
X162813838Y-135560856D01*
X162963251Y-135636412D01*
X163095057Y-135739667D01*
X163204186Y-135866655D01*
X163286445Y-136012490D01*
X163338673Y-136171576D01*
X163358860Y-136337786D01*
X163346233Y-136504740D01*
X163346232Y-136504743D01*
X163346232Y-136504744D01*
X163301277Y-136666031D01*
X163263708Y-136740322D01*
X163225717Y-136815452D01*
X163122465Y-136947253D01*
X162995477Y-137056383D01*
X162950285Y-137081873D01*
X162849641Y-137138642D01*
X162828101Y-137145713D01*
X162690559Y-137190869D01*
X162567734Y-137205786D01*
X162565990Y-137205998D01*
X162232579Y-137213564D01*
X162232571Y-137213564D01*
X162107456Y-137204102D01*
X162008495Y-137176518D01*
X161946165Y-137159145D01*
X161796748Y-137083587D01*
X161796744Y-137083585D01*
X161664943Y-136980333D01*
X161598142Y-136902600D01*
X161555813Y-136853345D01*
X161473554Y-136707509D01*
X161459937Y-136666029D01*
X161421327Y-136548427D01*
X161401139Y-136382214D01*
X161413766Y-136215260D01*
X161441350Y-136116299D01*
X161458723Y-136053969D01*
X161534281Y-135904552D01*
X161534283Y-135904548D01*
X161637535Y-135772747D01*
X161715268Y-135705946D01*
X161764523Y-135663617D01*
X161910359Y-135581358D01*
X161949678Y-135568450D01*
X162069441Y-135529131D01*
X162185326Y-135515057D01*
X162194009Y-135514002D01*
X162527421Y-135506436D01*
X162527428Y-135506436D01*
X162652544Y-135515898D01*
X162652544Y-135515898D01*
G37*
G36*
X162595826Y-133016541D02*
G01*
X162731929Y-133054477D01*
X162757117Y-133061498D01*
X162757118Y-133061498D01*
X162757120Y-133061499D01*
X162906533Y-133137055D01*
X163038339Y-133240310D01*
X163147468Y-133367298D01*
X163229727Y-133513133D01*
X163281955Y-133672219D01*
X163302142Y-133838429D01*
X163289515Y-134005383D01*
X163289514Y-134005386D01*
X163289514Y-134005387D01*
X163244559Y-134166674D01*
X163206990Y-134240965D01*
X163168999Y-134316095D01*
X163065747Y-134447896D01*
X162938759Y-134557026D01*
X162893567Y-134582516D01*
X162792923Y-134639285D01*
X162771383Y-134646356D01*
X162633841Y-134691512D01*
X162511016Y-134706429D01*
X162509272Y-134706641D01*
X162175861Y-134714207D01*
X162175853Y-134714207D01*
X162050738Y-134704745D01*
X161951777Y-134677161D01*
X161889447Y-134659788D01*
X161740030Y-134584230D01*
X161740026Y-134584228D01*
X161608225Y-134480976D01*
X161541424Y-134403243D01*
X161499095Y-134353988D01*
X161416836Y-134208152D01*
X161403219Y-134166672D01*
X161364609Y-134049070D01*
X161344421Y-133882857D01*
X161357048Y-133715903D01*
X161384632Y-133616942D01*
X161402005Y-133554612D01*
X161477563Y-133405195D01*
X161477565Y-133405191D01*
X161580817Y-133273390D01*
X161658550Y-133206589D01*
X161707805Y-133164260D01*
X161853641Y-133082001D01*
X161892960Y-133069093D01*
X162012723Y-133029774D01*
X162128608Y-133015700D01*
X162137291Y-133014645D01*
X162470703Y-133007079D01*
X162470710Y-133007079D01*
X162595826Y-133016541D01*
X162595826Y-133016541D01*
G37*
G36*
X156386703Y-130841487D02*
G01*
X156677885Y-130962097D01*
X156939942Y-131137199D01*
X157162801Y-131360058D01*
X157337903Y-131622115D01*
X157458513Y-131913297D01*
X157520000Y-132222413D01*
X157520000Y-132537587D01*
X157458513Y-132846703D01*
X157337903Y-133137885D01*
X157162801Y-133399942D01*
X156939942Y-133622801D01*
X156677885Y-133797903D01*
X156386703Y-133918513D01*
X156077587Y-133980000D01*
X155762413Y-133980000D01*
X155453297Y-133918513D01*
X155162115Y-133797903D01*
X154900058Y-133622801D01*
X154677199Y-133399942D01*
X154502097Y-133137885D01*
X154381487Y-132846703D01*
X154320000Y-132537587D01*
X154320000Y-132222413D01*
X154381487Y-131913297D01*
X154502097Y-131622115D01*
X154677199Y-131360058D01*
X154900058Y-131137199D01*
X155162115Y-130962097D01*
X155453297Y-130841487D01*
X155762413Y-130780000D01*
X156077587Y-130780000D01*
X156386703Y-130841487D01*
X156386703Y-130841487D01*
G37*
G36*
X162539107Y-130517185D02*
G01*
X162675210Y-130555121D01*
X162700398Y-130562142D01*
X162700399Y-130562142D01*
X162700401Y-130562143D01*
X162849814Y-130637699D01*
X162981620Y-130740954D01*
X163090749Y-130867942D01*
X163173008Y-131013777D01*
X163225236Y-131172863D01*
X163245423Y-131339073D01*
X163232796Y-131506027D01*
X163232795Y-131506030D01*
X163232795Y-131506031D01*
X163187840Y-131667318D01*
X163150271Y-131741609D01*
X163112280Y-131816739D01*
X163009028Y-131948540D01*
X162882040Y-132057670D01*
X162836848Y-132083160D01*
X162736204Y-132139929D01*
X162714664Y-132147000D01*
X162577122Y-132192156D01*
X162454297Y-132207073D01*
X162452553Y-132207285D01*
X162119142Y-132214851D01*
X162119134Y-132214851D01*
X161994019Y-132205389D01*
X161895058Y-132177805D01*
X161832728Y-132160432D01*
X161683311Y-132084874D01*
X161683307Y-132084872D01*
X161551506Y-131981620D01*
X161484705Y-131903887D01*
X161442376Y-131854632D01*
X161360117Y-131708796D01*
X161346500Y-131667316D01*
X161307890Y-131549714D01*
X161287702Y-131383501D01*
X161300329Y-131216547D01*
X161327913Y-131117586D01*
X161345286Y-131055256D01*
X161420844Y-130905839D01*
X161420846Y-130905835D01*
X161524098Y-130774034D01*
X161601831Y-130707233D01*
X161651086Y-130664904D01*
X161796922Y-130582645D01*
X161836241Y-130569737D01*
X161956004Y-130530418D01*
X162071889Y-130516344D01*
X162080572Y-130515289D01*
X162413984Y-130507723D01*
X162413991Y-130507723D01*
X162539107Y-130517185D01*
X162539107Y-130517185D01*
G37*
G36*
X162993037Y-127998294D02*
G01*
X163033434Y-128009554D01*
X163070850Y-128028475D01*
X163103857Y-128054332D01*
X163131186Y-128086134D01*
X163151788Y-128122659D01*
X163164867Y-128162497D01*
X163170224Y-128206606D01*
X163170981Y-128239954D01*
X163170982Y-128239964D01*
X163198207Y-129439655D01*
X163198206Y-129439665D01*
X163198963Y-129473013D01*
X163195613Y-129517318D01*
X163184353Y-129557715D01*
X163165432Y-129595131D01*
X163139575Y-129628138D01*
X163107773Y-129655467D01*
X163071248Y-129676069D01*
X163031410Y-129689148D01*
X162987301Y-129694505D01*
X162953953Y-129695262D01*
X162953943Y-129695263D01*
X161504316Y-129728160D01*
X161504306Y-129728159D01*
X161470958Y-129728916D01*
X161426653Y-129725566D01*
X161386256Y-129714306D01*
X161348840Y-129695385D01*
X161315833Y-129669528D01*
X161288504Y-129637726D01*
X161267902Y-129601201D01*
X161254823Y-129561363D01*
X161249466Y-129517254D01*
X161248709Y-129483906D01*
X161248708Y-129483896D01*
X161221483Y-128284205D01*
X161221484Y-128284195D01*
X161220727Y-128250847D01*
X161224077Y-128206542D01*
X161235337Y-128166145D01*
X161254258Y-128128729D01*
X161280115Y-128095722D01*
X161311917Y-128068393D01*
X161348442Y-128047791D01*
X161388280Y-128034712D01*
X161432389Y-128029355D01*
X161465737Y-128028598D01*
X161465747Y-128028597D01*
X162915374Y-127995700D01*
X162915384Y-127995701D01*
X162948732Y-127994944D01*
X162993037Y-127998294D01*
X162993037Y-127998294D01*
G37*
G36*
X115896703Y-103011487D02*
G01*
X116187885Y-103132097D01*
X116449942Y-103307199D01*
X116672801Y-103530058D01*
X116847903Y-103792115D01*
X116968513Y-104083297D01*
X117030000Y-104392413D01*
X117030000Y-104707587D01*
X116968513Y-105016703D01*
X116847903Y-105307885D01*
X116672801Y-105569942D01*
X116449942Y-105792801D01*
X116187885Y-105967903D01*
X115896703Y-106088513D01*
X115587587Y-106150000D01*
X115272413Y-106150000D01*
X114963297Y-106088513D01*
X114672115Y-105967903D01*
X114410058Y-105792801D01*
X114187199Y-105569942D01*
X114012097Y-105307885D01*
X113891487Y-105016703D01*
X113830000Y-104707587D01*
X113830000Y-104392413D01*
X113891487Y-104083297D01*
X114012097Y-103792115D01*
X114187199Y-103530058D01*
X114410058Y-103307199D01*
X114672115Y-103132097D01*
X114963297Y-103011487D01*
X115272413Y-102950000D01*
X115587587Y-102950000D01*
X115896703Y-103011487D01*
X115896703Y-103011487D01*
G37*
G36*
X203553412Y-100254250D02*
G01*
X203710112Y-100313227D01*
X203778777Y-100355926D01*
X203852300Y-100401645D01*
X203950943Y-100494035D01*
X203974506Y-100516104D01*
X204072033Y-100652201D01*
X204141135Y-100804712D01*
X204179156Y-100967772D01*
X204184635Y-101135122D01*
X204164196Y-101258918D01*
X204077879Y-101581065D01*
X204033680Y-101698501D01*
X203945261Y-101840690D01*
X203830806Y-101962893D01*
X203694706Y-102060422D01*
X203542195Y-102129524D01*
X203379135Y-102167546D01*
X203217269Y-102172845D01*
X203211791Y-102173024D01*
X203211790Y-102173024D01*
X203170490Y-102166205D01*
X203046588Y-102145750D01*
X202889888Y-102086773D01*
X202778315Y-102017392D01*
X202747700Y-101998355D01*
X202625495Y-101883898D01*
X202594532Y-101840689D01*
X202527967Y-101747799D01*
X202458865Y-101595288D01*
X202441426Y-101520498D01*
X202420843Y-101432228D01*
X202415365Y-101264883D01*
X202415365Y-101264879D01*
X202435804Y-101141083D01*
X202435805Y-101141075D01*
X202522120Y-100818940D01*
X202522121Y-100818936D01*
X202566320Y-100701499D01*
X202654739Y-100559310D01*
X202769194Y-100437107D01*
X202905294Y-100339578D01*
X203057805Y-100270476D01*
X203220864Y-100232455D01*
X203388209Y-100226976D01*
X203553412Y-100254250D01*
X203553412Y-100254250D01*
G37*
G36*
X201138597Y-99607202D02*
G01*
X201295297Y-99666179D01*
X201370037Y-99712656D01*
X201437485Y-99754597D01*
X201536129Y-99846988D01*
X201559691Y-99869056D01*
X201657218Y-100005153D01*
X201726320Y-100157664D01*
X201764341Y-100320724D01*
X201769820Y-100488074D01*
X201749381Y-100611870D01*
X201749380Y-100611875D01*
X201749379Y-100611879D01*
X201725366Y-100701499D01*
X201663064Y-100934017D01*
X201618865Y-101051453D01*
X201530446Y-101193642D01*
X201415991Y-101315845D01*
X201279891Y-101413374D01*
X201127380Y-101482476D01*
X200964320Y-101520498D01*
X200802454Y-101525797D01*
X200796976Y-101525976D01*
X200796975Y-101525976D01*
X200755675Y-101519158D01*
X200631773Y-101498702D01*
X200475073Y-101439725D01*
X200363500Y-101370344D01*
X200332885Y-101351307D01*
X200210680Y-101236850D01*
X200142054Y-101141083D01*
X200113152Y-101100751D01*
X200044050Y-100948240D01*
X200040732Y-100934012D01*
X200006028Y-100785180D01*
X200000550Y-100617835D01*
X200000550Y-100617831D01*
X200017345Y-100516104D01*
X200020990Y-100494027D01*
X200107305Y-100171892D01*
X200107306Y-100171888D01*
X200151505Y-100054451D01*
X200239924Y-99912262D01*
X200354379Y-99790059D01*
X200490479Y-99692530D01*
X200642990Y-99623428D01*
X200806049Y-99585407D01*
X200973394Y-99579928D01*
X201138597Y-99607202D01*
X201138597Y-99607202D01*
G37*
G36*
X198723783Y-98960155D02*
G01*
X198880483Y-99019132D01*
X198955223Y-99065609D01*
X199022671Y-99107550D01*
X199144876Y-99222008D01*
X199144877Y-99222009D01*
X199242404Y-99358106D01*
X199311506Y-99510617D01*
X199349527Y-99673677D01*
X199355006Y-99841027D01*
X199334567Y-99964823D01*
X199334566Y-99964828D01*
X199334565Y-99964832D01*
X199332970Y-99970784D01*
X199248250Y-100286970D01*
X199204051Y-100404406D01*
X199115632Y-100546595D01*
X199001177Y-100668798D01*
X198865077Y-100766327D01*
X198712566Y-100835429D01*
X198549506Y-100873451D01*
X198387640Y-100878750D01*
X198382162Y-100878929D01*
X198382161Y-100878929D01*
X198340861Y-100872110D01*
X198216959Y-100851655D01*
X198060259Y-100792678D01*
X197948686Y-100723297D01*
X197918071Y-100704260D01*
X197795866Y-100589803D01*
X197743053Y-100516103D01*
X197698338Y-100453704D01*
X197629236Y-100301193D01*
X197622074Y-100270477D01*
X197591214Y-100138133D01*
X197585736Y-99970788D01*
X197585736Y-99970784D01*
X197600028Y-99884222D01*
X197606176Y-99846980D01*
X197692491Y-99524845D01*
X197692492Y-99524841D01*
X197736691Y-99407404D01*
X197825110Y-99265215D01*
X197939565Y-99143012D01*
X198075665Y-99045483D01*
X198228176Y-98976381D01*
X198391235Y-98938360D01*
X198558580Y-98932881D01*
X198723783Y-98960155D01*
X198723783Y-98960155D01*
G37*
G36*
X195696119Y-98153152D02*
G01*
X195728349Y-98161788D01*
X196112605Y-98264749D01*
X196919686Y-98481006D01*
X196961276Y-98496659D01*
X196996885Y-98518802D01*
X197027487Y-98547465D01*
X197051912Y-98581549D01*
X197069217Y-98619743D01*
X197078738Y-98660576D01*
X197080110Y-98702490D01*
X197072872Y-98746327D01*
X197064236Y-98778557D01*
X196736363Y-100002200D01*
X196680314Y-100211376D01*
X196664661Y-100252965D01*
X196642517Y-100288575D01*
X196613854Y-100319178D01*
X196579772Y-100343602D01*
X196541577Y-100360908D01*
X196500745Y-100370428D01*
X196458830Y-100371800D01*
X196414993Y-100364562D01*
X196382763Y-100355926D01*
X195223652Y-100045343D01*
X195223651Y-100045343D01*
X195191426Y-100036708D01*
X195149836Y-100021055D01*
X195114227Y-99998912D01*
X195083625Y-99970249D01*
X195059200Y-99936165D01*
X195041895Y-99897971D01*
X195032374Y-99857138D01*
X195031002Y-99815224D01*
X195038240Y-99771387D01*
X195255609Y-98960155D01*
X195422163Y-98338564D01*
X195422163Y-98338563D01*
X195430798Y-98306338D01*
X195446451Y-98264749D01*
X195468595Y-98229139D01*
X195497258Y-98198536D01*
X195531340Y-98174112D01*
X195569535Y-98156806D01*
X195610367Y-98147286D01*
X195652282Y-98145914D01*
X195696119Y-98153152D01*
X195696119Y-98153152D01*
G37*
G36*
X206661625Y-94672298D02*
G01*
X206746600Y-94698075D01*
X206821855Y-94720903D01*
X206866649Y-94744846D01*
X206969521Y-94799832D01*
X207098949Y-94906051D01*
X207205168Y-95035479D01*
X207260154Y-95138351D01*
X207284097Y-95183145D01*
X207306925Y-95258400D01*
X207332702Y-95343375D01*
X207349113Y-95510000D01*
X207332702Y-95676625D01*
X207306925Y-95761600D01*
X207284097Y-95836855D01*
X207284096Y-95836856D01*
X207205168Y-95984521D01*
X207098949Y-96113949D01*
X206969521Y-96220168D01*
X206866649Y-96275154D01*
X206821855Y-96299097D01*
X206746600Y-96321925D01*
X206661625Y-96347702D01*
X206536757Y-96360000D01*
X206203243Y-96360000D01*
X206078375Y-96347702D01*
X205993400Y-96321925D01*
X205918145Y-96299097D01*
X205873351Y-96275154D01*
X205770479Y-96220168D01*
X205641051Y-96113949D01*
X205534832Y-95984521D01*
X205455904Y-95836856D01*
X205455903Y-95836855D01*
X205433075Y-95761600D01*
X205407298Y-95676625D01*
X205390887Y-95510000D01*
X205407298Y-95343375D01*
X205433075Y-95258400D01*
X205455903Y-95183145D01*
X205479846Y-95138351D01*
X205534832Y-95035479D01*
X205641051Y-94906051D01*
X205770479Y-94799832D01*
X205873351Y-94744846D01*
X205918145Y-94720903D01*
X205993400Y-94698075D01*
X206078375Y-94672298D01*
X206203243Y-94660000D01*
X206536757Y-94660000D01*
X206661625Y-94672298D01*
X206661625Y-94672298D01*
G37*
G36*
X111792021Y-93036365D02*
G01*
X111877319Y-93044766D01*
X111877322Y-93044767D01*
X111877323Y-93044767D01*
X112004561Y-93083364D01*
X112121824Y-93146042D01*
X112224606Y-93230394D01*
X112308958Y-93333176D01*
X112371636Y-93450439D01*
X112389042Y-93507819D01*
X112410234Y-93577681D01*
X112423266Y-93710000D01*
X112410234Y-93842319D01*
X112410233Y-93842322D01*
X112410233Y-93842323D01*
X112371636Y-93969561D01*
X112308958Y-94086824D01*
X112224606Y-94189606D01*
X112121824Y-94273958D01*
X112004561Y-94336636D01*
X111877323Y-94375233D01*
X111877322Y-94375233D01*
X111877319Y-94375234D01*
X111792021Y-94383635D01*
X111778159Y-94385000D01*
X111361841Y-94385000D01*
X111347979Y-94383635D01*
X111262681Y-94375234D01*
X111262678Y-94375233D01*
X111262677Y-94375233D01*
X111135439Y-94336636D01*
X111018176Y-94273958D01*
X110915394Y-94189606D01*
X110831042Y-94086824D01*
X110768364Y-93969561D01*
X110729767Y-93842323D01*
X110729767Y-93842322D01*
X110729766Y-93842319D01*
X110716734Y-93710000D01*
X110729766Y-93577681D01*
X110750958Y-93507819D01*
X110768364Y-93450439D01*
X110831042Y-93333176D01*
X110915394Y-93230394D01*
X111018176Y-93146042D01*
X111135439Y-93083364D01*
X111262677Y-93044767D01*
X111262678Y-93044767D01*
X111262681Y-93044766D01*
X111347979Y-93036365D01*
X111361841Y-93035000D01*
X111778159Y-93035000D01*
X111792021Y-93036365D01*
X111792021Y-93036365D01*
G37*
G36*
X114877815Y-92857957D02*
G01*
X114877818Y-92857958D01*
X114877819Y-92857958D01*
X114902127Y-92865332D01*
X114981493Y-92889407D01*
X115015000Y-92907317D01*
X115077042Y-92940479D01*
X115077045Y-92940481D01*
X115077046Y-92940482D01*
X115160791Y-93009209D01*
X115229518Y-93092954D01*
X115229521Y-93092958D01*
X115257895Y-93146042D01*
X115280593Y-93188507D01*
X115312043Y-93292185D01*
X115322662Y-93400000D01*
X115312043Y-93507815D01*
X115280593Y-93611493D01*
X115279280Y-93613949D01*
X115229521Y-93707042D01*
X115229519Y-93707045D01*
X115229518Y-93707046D01*
X115160791Y-93790791D01*
X115077046Y-93859518D01*
X115077042Y-93859521D01*
X115015000Y-93892683D01*
X114981493Y-93910593D01*
X114902127Y-93934668D01*
X114877819Y-93942042D01*
X114877818Y-93942042D01*
X114877815Y-93942043D01*
X114797024Y-93950000D01*
X114342976Y-93950000D01*
X114262185Y-93942043D01*
X114262182Y-93942042D01*
X114262181Y-93942042D01*
X114237873Y-93934668D01*
X114158507Y-93910593D01*
X114125000Y-93892683D01*
X114062958Y-93859521D01*
X114062954Y-93859518D01*
X113979209Y-93790791D01*
X113910482Y-93707046D01*
X113910481Y-93707045D01*
X113910479Y-93707042D01*
X113860720Y-93613949D01*
X113859407Y-93611493D01*
X113827957Y-93507815D01*
X113817338Y-93400000D01*
X113827957Y-93292185D01*
X113859407Y-93188507D01*
X113882105Y-93146042D01*
X113910479Y-93092958D01*
X113910482Y-93092954D01*
X113979209Y-93009209D01*
X114062954Y-92940482D01*
X114062955Y-92940481D01*
X114062958Y-92940479D01*
X114125000Y-92907317D01*
X114158507Y-92889407D01*
X114237873Y-92865332D01*
X114262181Y-92857958D01*
X114262182Y-92857958D01*
X114262185Y-92857957D01*
X114342976Y-92850000D01*
X114797024Y-92850000D01*
X114877815Y-92857957D01*
X114877815Y-92857957D01*
G37*
G36*
X206661625Y-92172298D02*
G01*
X206746600Y-92198075D01*
X206821855Y-92220903D01*
X206866649Y-92244846D01*
X206969521Y-92299832D01*
X207098949Y-92406051D01*
X207205168Y-92535479D01*
X207260154Y-92638351D01*
X207284097Y-92683145D01*
X207306925Y-92758400D01*
X207332702Y-92843375D01*
X207349113Y-93010000D01*
X207332702Y-93176625D01*
X207316391Y-93230394D01*
X207284097Y-93336855D01*
X207284096Y-93336856D01*
X207205168Y-93484521D01*
X207098949Y-93613949D01*
X206969521Y-93720168D01*
X206866649Y-93775154D01*
X206821855Y-93799097D01*
X206746600Y-93821925D01*
X206661625Y-93847702D01*
X206536757Y-93860000D01*
X206203243Y-93860000D01*
X206078375Y-93847702D01*
X205993400Y-93821925D01*
X205918145Y-93799097D01*
X205873351Y-93775154D01*
X205770479Y-93720168D01*
X205641051Y-93613949D01*
X205534832Y-93484521D01*
X205455904Y-93336856D01*
X205455903Y-93336855D01*
X205423609Y-93230394D01*
X205407298Y-93176625D01*
X205390887Y-93010000D01*
X205407298Y-92843375D01*
X205433075Y-92758400D01*
X205455903Y-92683145D01*
X205479846Y-92638351D01*
X205534832Y-92535479D01*
X205641051Y-92406051D01*
X205770479Y-92299832D01*
X205873351Y-92244846D01*
X205918145Y-92220903D01*
X205993400Y-92198075D01*
X206078375Y-92172298D01*
X206203243Y-92160000D01*
X206536757Y-92160000D01*
X206661625Y-92172298D01*
X206661625Y-92172298D01*
G37*
G36*
X198506703Y-88341487D02*
G01*
X198797885Y-88462097D01*
X199059942Y-88637199D01*
X199282801Y-88860058D01*
X199457903Y-89122115D01*
X199578513Y-89413297D01*
X199640000Y-89722413D01*
X199640000Y-90037587D01*
X199578513Y-90346703D01*
X199457903Y-90637885D01*
X199282801Y-90899942D01*
X199059942Y-91122801D01*
X198797885Y-91297903D01*
X198506703Y-91418513D01*
X198197587Y-91480000D01*
X197882413Y-91480000D01*
X197573297Y-91418513D01*
X197282115Y-91297903D01*
X197020058Y-91122801D01*
X196797199Y-90899942D01*
X196622097Y-90637885D01*
X196501487Y-90346703D01*
X196440000Y-90037587D01*
X196440000Y-89722413D01*
X196501487Y-89413297D01*
X196622097Y-89122115D01*
X196797199Y-88860058D01*
X197020058Y-88637199D01*
X197282115Y-88462097D01*
X197573297Y-88341487D01*
X197882413Y-88280000D01*
X198197587Y-88280000D01*
X198506703Y-88341487D01*
X198506703Y-88341487D01*
G37*
G36*
X206661625Y-89672298D02*
G01*
X206746600Y-89698075D01*
X206821855Y-89720903D01*
X206866649Y-89744846D01*
X206969521Y-89799832D01*
X207098949Y-89906051D01*
X207205168Y-90035479D01*
X207260154Y-90138351D01*
X207284097Y-90183145D01*
X207306925Y-90258400D01*
X207332702Y-90343375D01*
X207349113Y-90510000D01*
X207332702Y-90676625D01*
X207306925Y-90761600D01*
X207284097Y-90836855D01*
X207284096Y-90836856D01*
X207205168Y-90984521D01*
X207098949Y-91113949D01*
X206969521Y-91220168D01*
X206866649Y-91275154D01*
X206821855Y-91299097D01*
X206746600Y-91321925D01*
X206661625Y-91347702D01*
X206536757Y-91360000D01*
X206203243Y-91360000D01*
X206078375Y-91347702D01*
X205993400Y-91321925D01*
X205918145Y-91299097D01*
X205873351Y-91275154D01*
X205770479Y-91220168D01*
X205641051Y-91113949D01*
X205534832Y-90984521D01*
X205455904Y-90836856D01*
X205455903Y-90836855D01*
X205433075Y-90761600D01*
X205407298Y-90676625D01*
X205390887Y-90510000D01*
X205407298Y-90343375D01*
X205433075Y-90258400D01*
X205455903Y-90183145D01*
X205479846Y-90138351D01*
X205534832Y-90035479D01*
X205641051Y-89906051D01*
X205770479Y-89799832D01*
X205873351Y-89744846D01*
X205918145Y-89720903D01*
X205993400Y-89698075D01*
X206078375Y-89672298D01*
X206203243Y-89660000D01*
X206536757Y-89660000D01*
X206661625Y-89672298D01*
X206661625Y-89672298D01*
G37*
G36*
X114877815Y-88017957D02*
G01*
X114877818Y-88017958D01*
X114877819Y-88017958D01*
X114902127Y-88025332D01*
X114981493Y-88049407D01*
X115015000Y-88067317D01*
X115077042Y-88100479D01*
X115077045Y-88100481D01*
X115077046Y-88100482D01*
X115160791Y-88169209D01*
X115229518Y-88252954D01*
X115229521Y-88252958D01*
X115243975Y-88280000D01*
X115280593Y-88348507D01*
X115312043Y-88452185D01*
X115322662Y-88560000D01*
X115312043Y-88667815D01*
X115280593Y-88771493D01*
X115280592Y-88771494D01*
X115229521Y-88867042D01*
X115229519Y-88867045D01*
X115229518Y-88867046D01*
X115160791Y-88950791D01*
X115077046Y-89019518D01*
X115077042Y-89019521D01*
X115015000Y-89052683D01*
X114981493Y-89070593D01*
X114902127Y-89094668D01*
X114877819Y-89102042D01*
X114877818Y-89102042D01*
X114877815Y-89102043D01*
X114797024Y-89110000D01*
X114342976Y-89110000D01*
X114262185Y-89102043D01*
X114262182Y-89102042D01*
X114262181Y-89102042D01*
X114237873Y-89094668D01*
X114158507Y-89070593D01*
X114125000Y-89052683D01*
X114062958Y-89019521D01*
X114062954Y-89019518D01*
X113979209Y-88950791D01*
X113910482Y-88867046D01*
X113910481Y-88867045D01*
X113910479Y-88867042D01*
X113859408Y-88771494D01*
X113859407Y-88771493D01*
X113827957Y-88667815D01*
X113817338Y-88560000D01*
X113827957Y-88452185D01*
X113859407Y-88348507D01*
X113896025Y-88280000D01*
X113910479Y-88252958D01*
X113910482Y-88252954D01*
X113979209Y-88169209D01*
X114062954Y-88100482D01*
X114062955Y-88100481D01*
X114062958Y-88100479D01*
X114125000Y-88067317D01*
X114158507Y-88049407D01*
X114237873Y-88025332D01*
X114262181Y-88017958D01*
X114262182Y-88017958D01*
X114262185Y-88017957D01*
X114342976Y-88010000D01*
X114797024Y-88010000D01*
X114877815Y-88017957D01*
X114877815Y-88017957D01*
G37*
G36*
X111792021Y-87576365D02*
G01*
X111877319Y-87584766D01*
X111877322Y-87584767D01*
X111877323Y-87584767D01*
X112004561Y-87623364D01*
X112121824Y-87686042D01*
X112224606Y-87770394D01*
X112308958Y-87873176D01*
X112371636Y-87990439D01*
X112389524Y-88049408D01*
X112410234Y-88117681D01*
X112423266Y-88250000D01*
X112410234Y-88382319D01*
X112410233Y-88382322D01*
X112410233Y-88382323D01*
X112371636Y-88509561D01*
X112308958Y-88626824D01*
X112224606Y-88729606D01*
X112121824Y-88813958D01*
X112004561Y-88876636D01*
X111877323Y-88915233D01*
X111877322Y-88915233D01*
X111877319Y-88915234D01*
X111792021Y-88923635D01*
X111778159Y-88925000D01*
X111361841Y-88925000D01*
X111347979Y-88923635D01*
X111262681Y-88915234D01*
X111262678Y-88915233D01*
X111262677Y-88915233D01*
X111135439Y-88876636D01*
X111018176Y-88813958D01*
X110915394Y-88729606D01*
X110831042Y-88626824D01*
X110768364Y-88509561D01*
X110729767Y-88382323D01*
X110729767Y-88382322D01*
X110729766Y-88382319D01*
X110716734Y-88250000D01*
X110729766Y-88117681D01*
X110750476Y-88049408D01*
X110768364Y-87990439D01*
X110831042Y-87873176D01*
X110915394Y-87770394D01*
X111018176Y-87686042D01*
X111135439Y-87623364D01*
X111262677Y-87584767D01*
X111262678Y-87584767D01*
X111262681Y-87584766D01*
X111347979Y-87576365D01*
X111361841Y-87575000D01*
X111778159Y-87575000D01*
X111792021Y-87576365D01*
X111792021Y-87576365D01*
G37*
G36*
X206661625Y-87172298D02*
G01*
X206746600Y-87198075D01*
X206821855Y-87220903D01*
X206866649Y-87244846D01*
X206969521Y-87299832D01*
X207098949Y-87406051D01*
X207205168Y-87535479D01*
X207252143Y-87623364D01*
X207284097Y-87683145D01*
X207284976Y-87686044D01*
X207332702Y-87843375D01*
X207349113Y-88010000D01*
X207332702Y-88176625D01*
X207310444Y-88250000D01*
X207284097Y-88336855D01*
X207260154Y-88381649D01*
X207205168Y-88484521D01*
X207098949Y-88613949D01*
X206969521Y-88720168D01*
X206873498Y-88771493D01*
X206821855Y-88799097D01*
X206746600Y-88821925D01*
X206661625Y-88847702D01*
X206536757Y-88860000D01*
X206203243Y-88860000D01*
X206078375Y-88847702D01*
X205993400Y-88821925D01*
X205918145Y-88799097D01*
X205866502Y-88771493D01*
X205770479Y-88720168D01*
X205641051Y-88613949D01*
X205534832Y-88484521D01*
X205479846Y-88381649D01*
X205455903Y-88336855D01*
X205429556Y-88250000D01*
X205407298Y-88176625D01*
X205390887Y-88010000D01*
X205407298Y-87843375D01*
X205455024Y-87686044D01*
X205455903Y-87683145D01*
X205487857Y-87623364D01*
X205534832Y-87535479D01*
X205641051Y-87406051D01*
X205770479Y-87299832D01*
X205873351Y-87244846D01*
X205918145Y-87220903D01*
X205993400Y-87198075D01*
X206078375Y-87172298D01*
X206203243Y-87160000D01*
X206536757Y-87160000D01*
X206661625Y-87172298D01*
X206661625Y-87172298D01*
G37*
G36*
X207172585Y-84664355D02*
G01*
X207212715Y-84676528D01*
X207249689Y-84696292D01*
X207282106Y-84722894D01*
X207308708Y-84755311D01*
X207328472Y-84792285D01*
X207340645Y-84832415D01*
X207345000Y-84876634D01*
X207345000Y-86143366D01*
X207340645Y-86187585D01*
X207328472Y-86227715D01*
X207308708Y-86264689D01*
X207282106Y-86297106D01*
X207249689Y-86323708D01*
X207212715Y-86343472D01*
X207172585Y-86355645D01*
X207128366Y-86360000D01*
X205611634Y-86360000D01*
X205567415Y-86355645D01*
X205527285Y-86343472D01*
X205490311Y-86323708D01*
X205457894Y-86297106D01*
X205431292Y-86264689D01*
X205411528Y-86227715D01*
X205399355Y-86187585D01*
X205395000Y-86143366D01*
X205395000Y-84876634D01*
X205399355Y-84832415D01*
X205411528Y-84792285D01*
X205431292Y-84755311D01*
X205457894Y-84722894D01*
X205490311Y-84696292D01*
X205527285Y-84676528D01*
X205567415Y-84664355D01*
X205611634Y-84660000D01*
X207128366Y-84660000D01*
X207172585Y-84664355D01*
X207172585Y-84664355D01*
G37*
G36*
X114456035Y-83984448D02*
G01*
X114305552Y-85326035D01*
X112963965Y-85175552D01*
X113114448Y-83833965D01*
X114456035Y-83984448D01*
X114456035Y-83984448D01*
G37*
G36*
X115143864Y-80065200D02*
G01*
X114904800Y-81393864D01*
X113576136Y-81154800D01*
X113815200Y-79826136D01*
X115143864Y-80065200D01*
X115143864Y-80065200D01*
G37*
G36*
X115125021Y-71450022D02*
G01*
X115167551Y-71462923D01*
X116615016Y-72062483D01*
X116654201Y-72083429D01*
X116686618Y-72110031D01*
X116713220Y-72142448D01*
X116732983Y-72179422D01*
X116745157Y-72219554D01*
X116749267Y-72261279D01*
X116745157Y-72303004D01*
X116732255Y-72345537D01*
X116719492Y-72376350D01*
X116719490Y-72376356D01*
X116480136Y-72954208D01*
X116247502Y-73515836D01*
X116226556Y-73555022D01*
X116199954Y-73587439D01*
X116167537Y-73614041D01*
X116130564Y-73633804D01*
X116090432Y-73645978D01*
X116048706Y-73650088D01*
X116006979Y-73645978D01*
X115964449Y-73633077D01*
X114516984Y-73033517D01*
X114477799Y-73012571D01*
X114445382Y-72985969D01*
X114418780Y-72953552D01*
X114399017Y-72916578D01*
X114386843Y-72876446D01*
X114382733Y-72834721D01*
X114386843Y-72792996D01*
X114399745Y-72750463D01*
X114412508Y-72719650D01*
X114412510Y-72719644D01*
X114871730Y-71610989D01*
X114884498Y-71580164D01*
X114905444Y-71540978D01*
X114932046Y-71508561D01*
X114964463Y-71481959D01*
X115001436Y-71462196D01*
X115041568Y-71450022D01*
X115083294Y-71445912D01*
X115125021Y-71450022D01*
X115125021Y-71450022D01*
G37*
G36*
X116550758Y-69343198D02*
G01*
X116670833Y-69379623D01*
X116670835Y-69379624D01*
X116670839Y-69379625D01*
X116890781Y-69470729D01*
X117025143Y-69526384D01*
X117135813Y-69585538D01*
X117265244Y-69691760D01*
X117371460Y-69821185D01*
X117450388Y-69968850D01*
X117498993Y-70129082D01*
X117515404Y-70295706D01*
X117498992Y-70462332D01*
X117450386Y-70622562D01*
X117371459Y-70770224D01*
X117265236Y-70899657D01*
X117135811Y-71005872D01*
X116988145Y-71084801D01*
X116827913Y-71133406D01*
X116661289Y-71149817D01*
X116494663Y-71133405D01*
X116374579Y-71096977D01*
X116020272Y-70950217D01*
X115909607Y-70891065D01*
X115780175Y-70784842D01*
X115673961Y-70655419D01*
X115673960Y-70655418D01*
X115673958Y-70655415D01*
X115595030Y-70507750D01*
X115595029Y-70507749D01*
X115546425Y-70347520D01*
X115530014Y-70180896D01*
X115546426Y-70014270D01*
X115595031Y-69854043D01*
X115673961Y-69706376D01*
X115747880Y-69616306D01*
X115780181Y-69576948D01*
X115841793Y-69526385D01*
X115909606Y-69470732D01*
X115909607Y-69470731D01*
X115909610Y-69470729D01*
X116005494Y-69419479D01*
X116057276Y-69391800D01*
X116217505Y-69343196D01*
X116384129Y-69326785D01*
X116550758Y-69343198D01*
X116550758Y-69343198D01*
G37*
G36*
X121414981Y-60538532D02*
G01*
X121454226Y-60553302D01*
X121491965Y-60576770D01*
X122734932Y-61530532D01*
X122767364Y-61560908D01*
X122791789Y-61594992D01*
X122809094Y-61633186D01*
X122818615Y-61674019D01*
X122819987Y-61715933D01*
X122813157Y-61757298D01*
X122798387Y-61796543D01*
X122774919Y-61834282D01*
X122003785Y-62839243D01*
X121973409Y-62871675D01*
X121939325Y-62896100D01*
X121901131Y-62913405D01*
X121860298Y-62922926D01*
X121818384Y-62924298D01*
X121777019Y-62917468D01*
X121737774Y-62902698D01*
X121700035Y-62879230D01*
X120457068Y-61925468D01*
X120424636Y-61895092D01*
X120400211Y-61861008D01*
X120382906Y-61822814D01*
X120373385Y-61781981D01*
X120372013Y-61740067D01*
X120378843Y-61698702D01*
X120393613Y-61659457D01*
X120417081Y-61621718D01*
X121188215Y-60616757D01*
X121218591Y-60584325D01*
X121252675Y-60559900D01*
X121290869Y-60542595D01*
X121331702Y-60533074D01*
X121373616Y-60531702D01*
X121414981Y-60538532D01*
X121414981Y-60538532D01*
G37*
G36*
X123087941Y-58806498D02*
G01*
X123219962Y-58828294D01*
X123376665Y-58887273D01*
X123478278Y-58950461D01*
X123483225Y-58953537D01*
X123787475Y-59186996D01*
X123879061Y-59272776D01*
X123879063Y-59272778D01*
X123903271Y-59306561D01*
X123976590Y-59408875D01*
X124045691Y-59561385D01*
X124083712Y-59724445D01*
X124089190Y-59891790D01*
X124061916Y-60056992D01*
X124002938Y-60213694D01*
X123914520Y-60355882D01*
X123800063Y-60478085D01*
X123759980Y-60506808D01*
X123663964Y-60575614D01*
X123573624Y-60616546D01*
X123511453Y-60644715D01*
X123348392Y-60682736D01*
X123181047Y-60688214D01*
X123181046Y-60688214D01*
X123125980Y-60679123D01*
X123015845Y-60660940D01*
X122859145Y-60601962D01*
X122752585Y-60535699D01*
X122448329Y-60302235D01*
X122356747Y-60216459D01*
X122259219Y-60080359D01*
X122190117Y-59927849D01*
X122152096Y-59764788D01*
X122146618Y-59597444D01*
X122173892Y-59432242D01*
X122232871Y-59275539D01*
X122321286Y-59133357D01*
X122321288Y-59133354D01*
X122435746Y-59011149D01*
X122435748Y-59011147D01*
X122571845Y-58913621D01*
X122724355Y-58844519D01*
X122887416Y-58806498D01*
X123054760Y-58801020D01*
X123054761Y-58801020D01*
X123087941Y-58806498D01*
X123087941Y-58806498D01*
G37*
G36*
X146856703Y-46741487D02*
G01*
X147147885Y-46862097D01*
X147409942Y-47037199D01*
X147632801Y-47260058D01*
X147807903Y-47522115D01*
X147928513Y-47813297D01*
X147990000Y-48122413D01*
X147990000Y-48437587D01*
X147928513Y-48746703D01*
X147807903Y-49037885D01*
X147632801Y-49299942D01*
X147409942Y-49522801D01*
X147147885Y-49697903D01*
X146856703Y-49818513D01*
X146547587Y-49880000D01*
X146232413Y-49880000D01*
X145923297Y-49818513D01*
X145632115Y-49697903D01*
X145370058Y-49522801D01*
X145147199Y-49299942D01*
X144972097Y-49037885D01*
X144851487Y-48746703D01*
X144790000Y-48437587D01*
X144790000Y-48122413D01*
X144851487Y-47813297D01*
X144972097Y-47522115D01*
X145147199Y-47260058D01*
X145370058Y-47037199D01*
X145632115Y-46862097D01*
X145923297Y-46741487D01*
X146232413Y-46680000D01*
X146547587Y-46680000D01*
X146856703Y-46741487D01*
X146856703Y-46741487D01*
G37*
G36*
X177028670Y-44760440D02*
G01*
X177185370Y-44819417D01*
X177260110Y-44865894D01*
X177327558Y-44907835D01*
X177426202Y-45000226D01*
X177449764Y-45022294D01*
X177547291Y-45158391D01*
X177616393Y-45310902D01*
X177654414Y-45473962D01*
X177659893Y-45641312D01*
X177639454Y-45765108D01*
X177639453Y-45765113D01*
X177639452Y-45765117D01*
X177614699Y-45857497D01*
X177553137Y-46087255D01*
X177508938Y-46204691D01*
X177420519Y-46346880D01*
X177306064Y-46469083D01*
X177169964Y-46566612D01*
X177017453Y-46635714D01*
X176854393Y-46673736D01*
X176692527Y-46679035D01*
X176687049Y-46679214D01*
X176687048Y-46679214D01*
X176645748Y-46672396D01*
X176521846Y-46651940D01*
X176365146Y-46592963D01*
X176253573Y-46523582D01*
X176222958Y-46504545D01*
X176100753Y-46390088D01*
X176069790Y-46346879D01*
X176003225Y-46253989D01*
X175934123Y-46101478D01*
X175930805Y-46087250D01*
X175896101Y-45938418D01*
X175890623Y-45771073D01*
X175890623Y-45771069D01*
X175911062Y-45647273D01*
X175911063Y-45647265D01*
X175997378Y-45325130D01*
X175997379Y-45325126D01*
X176041578Y-45207689D01*
X176129997Y-45065500D01*
X176244452Y-44943297D01*
X176380552Y-44845768D01*
X176533063Y-44776666D01*
X176696122Y-44738645D01*
X176863467Y-44733166D01*
X177028670Y-44760440D01*
X177028670Y-44760440D01*
G37*
G36*
X174613856Y-44113393D02*
G01*
X174770556Y-44172370D01*
X174839221Y-44215069D01*
X174912744Y-44260788D01*
X175011387Y-44353178D01*
X175034950Y-44375247D01*
X175132477Y-44511344D01*
X175201579Y-44663855D01*
X175239600Y-44826915D01*
X175245079Y-44994265D01*
X175224640Y-45118061D01*
X175138323Y-45440208D01*
X175094124Y-45557644D01*
X175005705Y-45699833D01*
X174891250Y-45822036D01*
X174755150Y-45919565D01*
X174602639Y-45988667D01*
X174439579Y-46026689D01*
X174277713Y-46031988D01*
X174272235Y-46032167D01*
X174272234Y-46032167D01*
X174230934Y-46025349D01*
X174107032Y-46004893D01*
X173950332Y-45945916D01*
X173838759Y-45876535D01*
X173808144Y-45857498D01*
X173685939Y-45743041D01*
X173654976Y-45699832D01*
X173588411Y-45606942D01*
X173519309Y-45454431D01*
X173501870Y-45379641D01*
X173481287Y-45291371D01*
X173475809Y-45124026D01*
X173475809Y-45124022D01*
X173489566Y-45040698D01*
X173496249Y-45000218D01*
X173582564Y-44678083D01*
X173582565Y-44678079D01*
X173626764Y-44560642D01*
X173715183Y-44418453D01*
X173829638Y-44296250D01*
X173965738Y-44198721D01*
X174118249Y-44129619D01*
X174281308Y-44091598D01*
X174448653Y-44086119D01*
X174613856Y-44113393D01*
X174613856Y-44113393D01*
G37*
G36*
X172199041Y-43466345D02*
G01*
X172355741Y-43525322D01*
X172430481Y-43571799D01*
X172497929Y-43613740D01*
X172596573Y-43706131D01*
X172620135Y-43728199D01*
X172717662Y-43864296D01*
X172786764Y-44016807D01*
X172824785Y-44179867D01*
X172830264Y-44347217D01*
X172809825Y-44471013D01*
X172809824Y-44471018D01*
X172809823Y-44471022D01*
X172785810Y-44560642D01*
X172723508Y-44793160D01*
X172679309Y-44910596D01*
X172590890Y-45052785D01*
X172476435Y-45174988D01*
X172340335Y-45272517D01*
X172187824Y-45341619D01*
X172024764Y-45379641D01*
X171862898Y-45384940D01*
X171857420Y-45385119D01*
X171857419Y-45385119D01*
X171816119Y-45378301D01*
X171692217Y-45357845D01*
X171535517Y-45298868D01*
X171423944Y-45229487D01*
X171393329Y-45210450D01*
X171271124Y-45095993D01*
X171202498Y-45000226D01*
X171173596Y-44959894D01*
X171104494Y-44807383D01*
X171097332Y-44776667D01*
X171066472Y-44644323D01*
X171060994Y-44476978D01*
X171060994Y-44476974D01*
X171077789Y-44375247D01*
X171081434Y-44353170D01*
X171167749Y-44031035D01*
X171167750Y-44031031D01*
X171211949Y-43913594D01*
X171300368Y-43771405D01*
X171414823Y-43649202D01*
X171550923Y-43551673D01*
X171703434Y-43482571D01*
X171866493Y-43444550D01*
X172033838Y-43439071D01*
X172199041Y-43466345D01*
X172199041Y-43466345D01*
G37*
G36*
X169784227Y-42819298D02*
G01*
X169940927Y-42878275D01*
X170015667Y-42924752D01*
X170083115Y-42966693D01*
X170205320Y-43081151D01*
X170205321Y-43081152D01*
X170302848Y-43217249D01*
X170371950Y-43369760D01*
X170409971Y-43532820D01*
X170415450Y-43700170D01*
X170395011Y-43823966D01*
X170395010Y-43823971D01*
X170395009Y-43823975D01*
X170393414Y-43829927D01*
X170308694Y-44146113D01*
X170264495Y-44263549D01*
X170176076Y-44405738D01*
X170061621Y-44527941D01*
X169925521Y-44625470D01*
X169773010Y-44694572D01*
X169609950Y-44732594D01*
X169448084Y-44737893D01*
X169442606Y-44738072D01*
X169442605Y-44738072D01*
X169401305Y-44731253D01*
X169277403Y-44710798D01*
X169120703Y-44651821D01*
X169009130Y-44582440D01*
X168978515Y-44563403D01*
X168856310Y-44448946D01*
X168803497Y-44375246D01*
X168758782Y-44312847D01*
X168689680Y-44160336D01*
X168682518Y-44129620D01*
X168651658Y-43997276D01*
X168646180Y-43829931D01*
X168646180Y-43829927D01*
X168660472Y-43743365D01*
X168666620Y-43706123D01*
X168752935Y-43383988D01*
X168752936Y-43383984D01*
X168797135Y-43266547D01*
X168885554Y-43124358D01*
X169000009Y-43002155D01*
X169136109Y-42904626D01*
X169288620Y-42835524D01*
X169451679Y-42797503D01*
X169619024Y-42792024D01*
X169784227Y-42819298D01*
X169784227Y-42819298D01*
G37*
G36*
X166756563Y-42012295D02*
G01*
X166788793Y-42020931D01*
X167173049Y-42123892D01*
X167980130Y-42340149D01*
X168021720Y-42355802D01*
X168057329Y-42377945D01*
X168087931Y-42406608D01*
X168112356Y-42440692D01*
X168129661Y-42478886D01*
X168139182Y-42519719D01*
X168140554Y-42561633D01*
X168133316Y-42605470D01*
X168124680Y-42637700D01*
X167796807Y-43861343D01*
X167740758Y-44070519D01*
X167725105Y-44112108D01*
X167702961Y-44147718D01*
X167674298Y-44178321D01*
X167640216Y-44202745D01*
X167602021Y-44220051D01*
X167561189Y-44229571D01*
X167519274Y-44230943D01*
X167475437Y-44223705D01*
X167443207Y-44215069D01*
X166284096Y-43904486D01*
X166284095Y-43904486D01*
X166251870Y-43895851D01*
X166210280Y-43880198D01*
X166174671Y-43858055D01*
X166144069Y-43829392D01*
X166119644Y-43795308D01*
X166102339Y-43757114D01*
X166092818Y-43716281D01*
X166091446Y-43674367D01*
X166098684Y-43630530D01*
X166316053Y-42819298D01*
X166482607Y-42197707D01*
X166482607Y-42197706D01*
X166491242Y-42165481D01*
X166506895Y-42123892D01*
X166529039Y-42088282D01*
X166557702Y-42057679D01*
X166591784Y-42033255D01*
X166629979Y-42015949D01*
X166670811Y-42006429D01*
X166712726Y-42005057D01*
X166756563Y-42012295D01*
X166756563Y-42012295D01*
G37*
M02*
