M48
; DRILL file {KiCad (5.1.4)-1} date 9/27/2020 4:19:56 PM
; FORMAT={-:-/ absolute / inch / decimal}
; #@! TF.CreationDate,2020-09-27T16:19:56-07:00
; #@! TF.GenerationSoftware,Kicad,Pcbnew,(5.1.4)-1
FMAT,2
INCH
T1C0.0087
T2C0.0130
T3C0.0150
T4C0.0256
T5C0.0276
T6C0.0315
T7C0.0374
T8C0.0394
T9C0.1260
%
G90
G05
T1
X4.5878Y-4.4421
X4.6791Y-4.3614
X4.7134Y-3.3354
X4.7157Y-4.5028
X4.7252Y-3.2571
X4.7276Y-4.3622
X4.7323Y-3.2264
X4.7374Y-4.3886
X4.7508Y-4.4126
X4.7634Y-3.2646
X4.7657Y-4.4374
X4.7697Y-3.2346
X4.7839Y-4.2142
X4.7941Y-4.4831
X4.8024Y-3.2717
X4.8091Y-3.2417
X4.8193Y-4.2004
X4.8311Y-2.7776
X4.8563Y-4.1835
X4.8606Y-3.0559
X5.0323Y-4.1906
X5.0453Y-4.2154
X5.0571Y-4.2398
X5.0705Y-4.2638
X5.0839Y-4.2874
X5.0976Y-4.3118
X5.1043Y-2.4555
X5.1043Y-3.4606
X5.1083Y-3.6071
X5.1114Y-4.3362
X5.1217Y-3.776
X5.1276Y-3.2882
X5.1622Y-3.1524
X5.1701Y-3.9173
X5.2193Y-3.0232
X5.2193Y-4.0756
X5.3039Y-2.8685
X5.3079Y-4.1996
X5.3965Y-4.3307
X5.4087Y-2.7358
X5.4382Y-2.0748
X5.4591Y-2.1079
X5.478Y-2.1437
X5.4917Y-2.0898
X5.4937Y-1.9154
X5.5126Y-2.6382
X5.5126Y-4.4374
X5.5303Y-1.987
X5.5461Y-1.8925
X5.5646Y-2.0492
X5.578Y-1.9634
X5.5996Y-1.8713
X5.6059Y-2.0295
X5.6276Y-2.5504
X5.6283Y-1.9425
X5.6299Y-4.5398
X5.6571Y-2.0094
X5.7681Y-2.4693
X5.7764Y-4.6209
X5.9118Y-2.4083
X5.9138Y-4.6748
X6.0488Y-4.711
X6.063Y-2.3693
X6.2075Y-2.1012
X6.2177Y-2.3461
X6.2193Y-4.7386
X6.2346Y-1.9264
X6.2346Y-2.1024
X6.262Y-2.1035
X6.2862Y-1.8874
X6.292Y-2.1035
X6.3126Y-1.8524
X6.3193Y-2.1043
X6.335Y-1.752
X6.3543Y-2.1047
X6.363Y-1.7531
X6.3685Y-2.3461
X6.372Y-4.7327
X6.3898Y-2.1043
X6.3933Y-1.7587
X6.522Y-2.3635
X6.5236Y-1.9614
X6.5307Y-4.7197
X6.678Y-2.4126
X6.6811Y-4.6717
X6.8157Y-2.4713
X6.8362Y-4.6146
X6.8504Y-2.2614
X6.8795Y-2.0776
X6.9531Y-4.5311
X6.9563Y-2.5492
X7.0819Y-2.6374
X7.0909Y-4.4406
X7.1882Y-4.3287
X7.1945Y-2.7551
X7.287Y-4.1949
X7.2874Y-2.8709
X7.289Y-5.0052
X7.3094Y-2.6126
X7.3642Y-4.0756
X7.3685Y-3.0118
X7.4228Y-3.1587
X7.4331Y-3.9201
X7.4717Y-3.7776
X7.4736Y-3.3114
X7.4894Y-4.3043
X7.4933Y-3.611
X7.4957Y-2.7909
X7.5004Y-3.4669
X7.5039Y-4.2803
X7.5177Y-4.2559
X7.5181Y-2.7469
X7.5307Y-4.2299
X7.5457Y-4.2047
X7.5606Y-4.1811
X7.576Y-4.1559
X7.5965Y-2.5378
X7.6472Y-2.6563
X7.6504Y-4.5295
X7.6748Y-3.1402
X7.6921Y-2.735
X7.7122Y-2.6138
X7.7346Y-2.811
X7.7622Y-2.6957
X7.7846Y-2.572
X7.8008Y-4.4748
X7.8039Y-2.7752
X7.8224Y-2.9098
X7.8295Y-2.6543
X7.8531Y-4.3862
X7.8673Y-4.3622
X7.8744Y-2.7362
X7.8795Y-2.8835
X7.9693Y-2.7563
X7.9799Y-2.7827
T2
X6.8287Y-5.2736
X6.9098Y-5.2465
X7.298Y-4.8032
X7.7299Y-4.2024
X7.8453Y-4.2744
T3
X4.7291Y-4.5677
X4.948Y-4.1433
X4.9583Y-4.8283
X5.0465Y-2.111
X5.3402Y-1.9051
X5.3689Y-2.1689
X5.8563Y-1.7488
X6.184Y-1.6982
X6.4268Y-2.0898
X6.989Y-5.0097
X7.0142Y-5.0888
X7.1777Y-4.888
X7.213Y-1.889
X7.4246Y-2.127
X7.4343Y-2.3921
X7.4906Y-2.3311
X7.5083Y-4.3945
T6
X4.5024Y-3.1736
X4.4768Y-3.3299
T7
X6.5794Y-1.6976
X6.6744Y-1.723
X6.7695Y-1.7485
X6.8646Y-1.774
X6.9597Y-1.7995
X6.3862Y-5.0733
X6.3884Y-5.1717
X6.3907Y-5.2701
X6.3929Y-5.3685
X7.7187Y-3.9078
X7.8138Y-3.9333
X7.9089Y-3.9588
X8.0039Y-3.9843
X8.1248Y-3.3665
X8.1248Y-3.465
X8.1248Y-3.5634
X8.1248Y-3.6618
X8.1248Y-3.7602
T8
X4.7872Y-2.4302
X4.8472Y-2.3522
X4.5498Y-2.8562
X4.5875Y-2.7653
T9
X7.7969Y-3.5386
X6.1386Y-5.2118
X4.5445Y-4.1161
X5.7634Y-1.9008
T4
G00X4.5028Y-3.4866
M15
G01X4.5185Y-3.4866
M16
G05
G00X4.5028Y-3.6772
M15
G01X4.5185Y-3.6772
M16
G05
T5
G00X4.3827Y-3.4744
M15
G01X4.4024Y-3.4744
M16
G05
G00X4.3827Y-3.6894
M15
G01X4.4024Y-3.6894
M16
G05
T0
M30
